<svg xmlns="http://www.w3.org/2000/svg" width="800" height="84" viewBox="0 0 800 84" class="WaveDrom"><g transform="translate(0.5,0.5)" text-anchor="middle" font-size="14" font-family="sans-serif" font-weight="normal"><g transform="translate(4,21)"><g stroke="black" stroke-width="1" stroke-linecap="round"><line x2="791"/><line y2="31"/><line x2="791" y1="31" y2="31"/><line x1="791" x2="791" y2="31"/><line x1="771" x2="771" y2="31"/><line x1="750" x2="750" y2="31"/><line x1="730" x2="730" y2="31"/><line x1="710" x2="710" y2="31"/><line x1="690" x2="690" y2="3"/><line x1="690" x2="690" y1="31" y2="28"/><line x1="669" x2="669" y2="3"/><line x1="669" x2="669" y1="31" y2="28"/><line x1="649" x2="649" y2="3"/><line x1="649" x2="649" y1="31" y2="28"/><line x1="629" x2="629" y2="3"/><line x1="629" x2="629" y1="31" y2="28"/><line x1="608" x2="608" y2="3"/><line x1="608" x2="608" y1="31" y2="28"/><line x1="588" x2="588" y2="3"/><line x1="588" x2="588" y1="31" y2="28"/><line x1="568" x2="568" y2="3"/><line x1="568" x2="568" y1="31" y2="28"/><line x1="548" x2="548" y2="3"/><line x1="548" x2="548" y1="31" y2="28"/><line x1="527" x2="527" y2="31"/><line x1="507" x2="507" y2="3"/><line x1="507" x2="507" y1="31" y2="28"/><line x1="487" x2="487" y2="3"/><line x1="487" x2="487" y1="31" y2="28"/><line x1="466" x2="466" y2="3"/><line x1="466" x2="466" y1="31" y2="28"/><line x1="446" x2="446" y2="3"/><line x1="446" x2="446" y1="31" y2="28"/><line x1="426" x2="426" y2="3"/><line x1="426" x2="426" y1="31" y2="28"/><line x1="406" x2="406" y2="3"/><line x1="406" x2="406" y1="31" y2="28"/><line x1="385" x2="385" y2="3"/><line x1="385" x2="385" y1="31" y2="28"/><line x1="365" x2="365" y2="3"/><line x1="365" x2="365" y1="31" y2="28"/><line x1="345" x2="345" y2="31"/><line x1="325" x2="325" y2="3"/><line x1="325" x2="325" y1="31" y2="28"/><line x1="304" x2="304" y2="3"/><line x1="304" x2="304" y1="31" y2="28"/><line x1="284" x2="284" y2="3"/><line x1="284" x2="284" y1="31" y2="28"/><line x1="264" x2="264" y2="3"/><line x1="264" x2="264" y1="31" y2="28"/><line x1="243" x2="243" y2="3"/><line x1="243" x2="243" y1="31" y2="28"/><line x1="223" x2="223" y2="3"/><line x1="223" x2="223" y1="31" y2="28"/><line x1="203" x2="203" y2="3"/><line x1="203" x2="203" y1="31" y2="28"/><line x1="183" x2="183" y2="3"/><line x1="183" x2="183" y1="31" y2="28"/><line x1="162" x2="162" y2="3"/><line x1="162" x2="162" y1="31" y2="28"/><line x1="142" x2="142" y2="3"/><line x1="142" x2="142" y1="31" y2="28"/><line x1="122" x2="122" y2="3"/><line x1="122" x2="122" y1="31" y2="28"/><line x1="101" x2="101" y2="3"/><line x1="101" x2="101" y1="31" y2="28"/><line x1="81" x2="81" y2="3"/><line x1="81" x2="81" y1="31" y2="28"/><line x1="61" x2="61" y2="3"/><line x1="61" x2="61" y1="31" y2="28"/><line x1="41" x2="41" y2="3"/><line x1="41" x2="41" y1="31" y2="28"/><line x1="20" x2="20" y2="31"/></g><g><g/><g transform="translate(10,-11)"><g transform="translate(771)"><text y="6">0</text></g><g transform="translate(750)"><text y="6">1</text></g><g transform="translate(730)"><text y="6">2</text></g><g transform="translate(710)"><text y="6">3</text></g><g transform="translate(690)"><text y="6">4</text></g><g transform="translate(527)"><text y="6">12</text></g><g transform="translate(507)"><text y="6">13</text></g><g transform="translate(345)"><text y="6">21</text></g><g transform="translate(325)"><text y="6">22</text></g><g transform="translate(20)"><text y="6">37</text></g><g transform="translate(0)"><text y="6">38</text></g></g><g transform="translate(10,15)"><g transform="translate(771)"><text y="6"><tspan>ND</tspan></text></g><g transform="translate(750)"><text y="6"><tspan>AVRP</tspan></text></g><g transform="translate(730)"><text y="6"><tspan>EVBARP</tspan></text></g><g transform="translate(710)"><text y="6"><tspan>ISRP</tspan></text></g><g transform="translate(608)"><text y="6"><tspan>AECSRP</tspan></text></g><g transform="translate(426)"><text y="6"><tspan>OF64A32S</tspan></text></g><g transform="translate(172)"><text y="6"><tspan>Reversed</tspan></text></g><g transform="translate(0)"><text y="6"><tspan></tspan></text></g></g><g transform="translate(10,39)"><g><g transform="translate(771)"><text y="6"><tspan>-</tspan></text></g><g transform="translate(771,14)"><text y="6"><tspan>R</tspan></text></g></g><g><g transform="translate(750)"><text y="6"><tspan>-</tspan></text></g><g transform="translate(750,14)"><text y="6"><tspan>R</tspan></text></g></g><g><g transform="translate(730)"><text y="6"><tspan>-</tspan></text></g><g transform="translate(730,14)"><text y="6"><tspan>R</tspan></text></g></g><g><g transform="translate(710)"><text y="6"><tspan>-</tspan></text></g><g transform="translate(710,14)"><text y="6"><tspan>R</tspan></text></g></g><g><g transform="translate(608)"><text y="6"><tspan>-</tspan></text></g><g transform="translate(608,14)"><text y="6"><tspan>R</tspan></text></g></g><g><g transform="translate(426)"><text y="6"><tspan>-</tspan></text></g><g transform="translate(426,14)"><text y="6"><tspan>R</tspan></text></g></g><g><g transform="translate(172)"><text y="6"><tspan>-</tspan></text></g><g transform="translate(172,14)"><text y="6"><tspan>R</tspan></text></g></g><g><g transform="translate(0)"><text y="6"><tspan>Reset</tspan></text></g><g transform="translate(0,14)"><text y="6"><tspan>R/W</tspan></text></g></g></g></g></g></g></svg>