<svg xmlns="http://www.w3.org/2000/svg" width="800" height="84" viewBox="0 0 800 84" class="WaveDrom"><g transform="translate(0.5,0.5)" text-anchor="middle" font-size="14" font-family="sans-serif" font-weight="normal"><g transform="translate(4,21)"><g stroke="black" stroke-width="1" stroke-linecap="round"><line x2="791"/><line y2="31"/><line x2="791" y1="31" y2="31"/><line x1="791" x2="791" y2="31"/><line x1="761" x2="761" y2="31"/><line x1="730" x2="730" y2="31"/><line x1="700" x2="700" y2="31"/><line x1="669" x2="669" y2="3"/><line x1="669" x2="669" y1="31" y2="28"/><line x1="639" x2="639" y2="3"/><line x1="639" x2="639" y1="31" y2="28"/><line x1="608" x2="608" y2="3"/><line x1="608" x2="608" y1="31" y2="28"/><line x1="578" x2="578" y2="3"/><line x1="578" x2="578" y1="31" y2="28"/><line x1="548" x2="548" y2="3"/><line x1="548" x2="548" y1="31" y2="28"/><line x1="517" x2="517" y2="3"/><line x1="517" x2="517" y1="31" y2="28"/><line x1="487" x2="487" y2="3"/><line x1="487" x2="487" y1="31" y2="28"/><line x1="456" x2="456" y2="3"/><line x1="456" x2="456" y1="31" y2="28"/><line x1="426" x2="426" y2="3"/><line x1="426" x2="426" y1="31" y2="28"/><line x1="396" x2="396" y2="3"/><line x1="396" x2="396" y1="31" y2="28"/><line x1="365" x2="365" y2="3"/><line x1="365" x2="365" y1="31" y2="28"/><line x1="335" x2="335" y2="3"/><line x1="335" x2="335" y1="31" y2="28"/><line x1="304" x2="304" y2="3"/><line x1="304" x2="304" y1="31" y2="28"/><line x1="274" x2="274" y2="3"/><line x1="274" x2="274" y1="31" y2="28"/><line x1="243" x2="243" y2="3"/><line x1="243" x2="243" y1="31" y2="28"/><line x1="213" x2="213" y2="3"/><line x1="213" x2="213" y1="31" y2="28"/><line x1="183" x2="183" y2="3"/><line x1="183" x2="183" y1="31" y2="28"/><line x1="152" x2="152" y2="3"/><line x1="152" x2="152" y1="31" y2="28"/><line x1="122" x2="122" y2="3"/><line x1="122" x2="122" y1="31" y2="28"/><line x1="91" x2="91" y2="3"/><line x1="91" x2="91" y1="31" y2="28"/><line x1="61" x2="61" y2="3"/><line x1="61" x2="61" y1="31" y2="28"/><line x1="30" x2="30" y2="31"/></g><g><g/><g transform="translate(15,-11)"><g transform="translate(761)"><text y="6">0</text></g><g transform="translate(730)"><text y="6">1</text></g><g transform="translate(700)"><text y="6">2</text></g><g transform="translate(669)"><text y="6">3</text></g><g transform="translate(30)"><text y="6">24</text></g><g transform="translate(0)"><text y="6">25</text></g></g><g transform="translate(15,15)"><g transform="translate(761)"><text y="6"><tspan>SWE</tspan></text></g><g transform="translate(730)"><text y="6"><tspan>URE</tspan></text></g><g transform="translate(700)"><text y="6"><tspan>UWE</tspan></text></g><g transform="translate(350)"><text y="6"><tspan>PPN</tspan></text></g><g transform="translate(0)"><text y="6"><tspan></tspan></text></g></g><g transform="translate(15,39)"><g><g transform="translate(761)"><text y="6"><tspan>X</tspan></text></g><g transform="translate(761,14)"><text y="6"><tspan>R/W</tspan></text></g></g><g><g transform="translate(730)"><text y="6"><tspan>X</tspan></text></g><g transform="translate(730,14)"><text y="6"><tspan>R/W</tspan></text></g></g><g><g transform="translate(700)"><text y="6"><tspan>X</tspan></text></g><g transform="translate(700,14)"><text y="6"><tspan>R/W</tspan></text></g></g><g><g transform="translate(350)"><text y="6"><tspan>X</tspan></text></g><g transform="translate(350,14)"><text y="6"><tspan>R/W</tspan></text></g></g><g><g transform="translate(0)"><text y="6"><tspan>Reset</tspan></text></g><g transform="translate(0,14)"><text y="6"><tspan>R/W</tspan></text></g></g></g></g></g></g></svg>