<svg xmlns="http://www.w3.org/2000/svg" width="800" height="84" viewBox="0 0 800 84" class="WaveDrom"><g transform="translate(0.5,0.5)" text-anchor="middle" font-size="14" font-family="sans-serif" font-weight="normal"><g transform="translate(4,21)"><g stroke="black" stroke-width="1" stroke-linecap="round"><line x2="791"/><line y2="31"/><line x2="791" y1="31" y2="31"/><line x1="791" x2="791" y2="31"/><line x1="753" x2="753" y2="3"/><line x1="753" x2="753" y1="31" y2="28"/><line x1="716" x2="716" y2="3"/><line x1="716" x2="716" y1="31" y2="28"/><line x1="678" x2="678" y2="3"/><line x1="678" x2="678" y1="31" y2="28"/><line x1="640" x2="640" y2="3"/><line x1="640" x2="640" y1="31" y2="28"/><line x1="603" x2="603" y2="3"/><line x1="603" x2="603" y1="31" y2="28"/><line x1="565" x2="565" y2="3"/><line x1="565" x2="565" y1="31" y2="28"/><line x1="527" x2="527" y2="3"/><line x1="527" x2="527" y1="31" y2="28"/><line x1="490" x2="490" y2="3"/><line x1="490" x2="490" y1="31" y2="28"/><line x1="452" x2="452" y2="3"/><line x1="452" x2="452" y1="31" y2="28"/><line x1="414" x2="414" y2="3"/><line x1="414" x2="414" y1="31" y2="28"/><line x1="377" x2="377" y2="3"/><line x1="377" x2="377" y1="31" y2="28"/><line x1="339" x2="339" y2="3"/><line x1="339" x2="339" y1="31" y2="28"/><line x1="301" x2="301" y2="3"/><line x1="301" x2="301" y1="31" y2="28"/><line x1="264" x2="264" y2="3"/><line x1="264" x2="264" y1="31" y2="28"/><line x1="226" x2="226" y2="3"/><line x1="226" x2="226" y1="31" y2="28"/><line x1="188" x2="188" y2="3"/><line x1="188" x2="188" y1="31" y2="28"/><line x1="151" x2="151" y2="3"/><line x1="151" x2="151" y1="31" y2="28"/><line x1="113" x2="113" y2="3"/><line x1="113" x2="113" y1="31" y2="28"/><line x1="75" x2="75" y2="3"/><line x1="75" x2="75" y1="31" y2="28"/><line x1="38" x2="38" y2="31"/></g><g><g/><g transform="translate(19,-11)"><g transform="translate(753)"><text y="6">0</text></g><g transform="translate(38)"><text y="6">19</text></g><g transform="translate(0)"><text y="6">20</text></g></g><g transform="translate(19,15)"><g transform="translate(396)"><text y="6"><tspan>Reversed</tspan></text></g><g transform="translate(0)"><text y="6"><tspan></tspan></text></g></g><g transform="translate(19,39)"><g><g transform="translate(396)"><text y="6"><tspan>-</tspan></text></g><g transform="translate(396,14)"><text y="6"><tspan>R</tspan></text></g></g><g><g transform="translate(0)"><text y="6"><tspan>Reset</tspan></text></g><g transform="translate(0,14)"><text y="6"><tspan>R/W</tspan></text></g></g></g></g></g></g></svg>