<svg xmlns="http://www.w3.org/2000/svg" width="800" height="84" viewBox="0 0 800 84" class="WaveDrom"><g transform="translate(0.5,0.5)" text-anchor="middle" font-size="14" font-family="sans-serif" font-weight="normal"><g transform="translate(4,21)"><g stroke="black" stroke-width="1" stroke-linecap="round"><line x2="791"/><line y2="31"/><line x2="791" y1="31" y2="31"/><line x1="791" x2="791" y2="31"/><line x1="758" x2="758" y2="31"/><line x1="725" x2="725" y2="31"/><line x1="692" x2="692" y2="31"/><line x1="659" x2="659" y2="31"/><line x1="626" x2="626" y2="31"/><line x1="593" x2="593" y2="31"/><line x1="560" x2="560" y2="3"/><line x1="560" x2="560" y1="31" y2="28"/><line x1="527" x2="527" y2="3"/><line x1="527" x2="527" y1="31" y2="28"/><line x1="494" x2="494" y2="3"/><line x1="494" x2="494" y1="31" y2="28"/><line x1="461" x2="461" y2="3"/><line x1="461" x2="461" y1="31" y2="28"/><line x1="428" x2="428" y2="3"/><line x1="428" x2="428" y1="31" y2="28"/><line x1="396" x2="396" y2="3"/><line x1="396" x2="396" y1="31" y2="28"/><line x1="363" x2="363" y2="3"/><line x1="363" x2="363" y1="31" y2="28"/><line x1="330" x2="330" y2="3"/><line x1="330" x2="330" y1="31" y2="28"/><line x1="297" x2="297" y2="3"/><line x1="297" x2="297" y1="31" y2="28"/><line x1="264" x2="264" y2="3"/><line x1="264" x2="264" y1="31" y2="28"/><line x1="231" x2="231" y2="3"/><line x1="231" x2="231" y1="31" y2="28"/><line x1="198" x2="198" y2="3"/><line x1="198" x2="198" y1="31" y2="28"/><line x1="165" x2="165" y2="3"/><line x1="165" x2="165" y1="31" y2="28"/><line x1="132" x2="132" y2="3"/><line x1="132" x2="132" y1="31" y2="28"/><line x1="99" x2="99" y2="3"/><line x1="99" x2="99" y1="31" y2="28"/><line x1="66" x2="66" y2="3"/><line x1="66" x2="66" y1="31" y2="28"/><line x1="33" x2="33" y2="31"/></g><g><g/><g transform="translate(16,-11)"><g transform="translate(758)"><text y="6">0</text></g><g transform="translate(725)"><text y="6">1</text></g><g transform="translate(692)"><text y="6">2</text></g><g transform="translate(659)"><text y="6">3</text></g><g transform="translate(626)"><text y="6">4</text></g><g transform="translate(593)"><text y="6">5</text></g><g transform="translate(560)"><text y="6">6</text></g><g transform="translate(33)"><text y="6">22</text></g><g transform="translate(0)"><text y="6">23</text></g></g><g transform="translate(16,15)"><g transform="translate(758)"><text y="6"><tspan>DME</tspan></text></g><g transform="translate(725)"><text y="6"><tspan>IME</tspan></text></g><g transform="translate(692)"><text y="6"><tspan>RE</tspan></text></g><g transform="translate(659)"><text y="6"><tspan>SCE</tspan></text></g><g transform="translate(626)"><text y="6"><tspan>FPE</tspan></text></g><g transform="translate(593)"><text y="6"><tspan>TE</tspan></text></g><g transform="translate(297)"><text y="6"><tspan>Reserved</tspan></text></g><g transform="translate(0)"><text y="6"><tspan></tspan></text></g></g><g transform="translate(16,39)"><g><g transform="translate(758)"><text y="6"><tspan>0</tspan></text></g><g transform="translate(758,14)"><text y="6"><tspan>R/W</tspan></text></g></g><g><g transform="translate(725)"><text y="6"><tspan>0</tspan></text></g><g transform="translate(725,14)"><text y="6"><tspan>R/W</tspan></text></g></g><g><g transform="translate(692)"><text y="6"><tspan>0</tspan></text></g><g transform="translate(692,14)"><text y="6"><tspan>R/W</tspan></text></g></g><g><g transform="translate(659)"><text y="6"><tspan>0</tspan></text></g><g transform="translate(659,14)"><text y="6"><tspan>R/W</tspan></text></g></g><g><g transform="translate(626)"><text y="6"><tspan>0</tspan></text></g><g transform="translate(626,14)"><text y="6"><tspan>R/W</tspan></text></g></g><g><g transform="translate(593)"><text y="6"><tspan>0</tspan></text></g><g transform="translate(593,14)"><text y="6"><tspan>R/W</tspan></text></g></g><g><g transform="translate(297)"><text y="6"><tspan>X</tspan></text></g><g transform="translate(297,14)"><text y="6"><tspan>R/W</tspan></text></g></g><g><g transform="translate(0)"><text y="6"><tspan>Reset</tspan></text></g><g transform="translate(0,14)"><text y="6"><tspan>R/W</tspan></text></g></g></g></g></g></g></svg>