<svg xmlns="http://www.w3.org/2000/svg" width="800" height="84" viewBox="0 0 800 84" class="WaveDrom"><g transform="translate(0.5,0.5)" text-anchor="middle" font-size="14" font-family="sans-serif" font-weight="normal"><g transform="translate(4,21)"><g stroke="black" stroke-width="1" stroke-linecap="round"><line x2="791"/><line y2="31"/><line x2="791" y1="31" y2="31"/><line x1="791" x2="791" y2="31"/><line x1="759" x2="759" y2="31"/><line x1="728" x2="728" y2="3"/><line x1="728" x2="728" y1="31" y2="28"/><line x1="696" x2="696" y2="3"/><line x1="696" x2="696" y1="31" y2="28"/><line x1="664" x2="664" y2="3"/><line x1="664" x2="664" y1="31" y2="28"/><line x1="633" x2="633" y2="3"/><line x1="633" x2="633" y1="31" y2="28"/><line x1="601" x2="601" y2="31"/><line x1="570" x2="570" y2="3"/><line x1="570" x2="570" y1="31" y2="28"/><line x1="538" x2="538" y2="3"/><line x1="538" x2="538" y1="31" y2="28"/><line x1="506" x2="506" y2="3"/><line x1="506" x2="506" y1="31" y2="28"/><line x1="475" x2="475" y2="3"/><line x1="475" x2="475" y1="31" y2="28"/><line x1="443" x2="443" y2="3"/><line x1="443" x2="443" y1="31" y2="28"/><line x1="411" x2="411" y2="3"/><line x1="411" x2="411" y1="31" y2="28"/><line x1="380" x2="380" y2="3"/><line x1="380" x2="380" y1="31" y2="28"/><line x1="348" x2="348" y2="3"/><line x1="348" x2="348" y1="31" y2="28"/><line x1="316" x2="316" y2="3"/><line x1="316" x2="316" y1="31" y2="28"/><line x1="285" x2="285" y2="3"/><line x1="285" x2="285" y1="31" y2="28"/><line x1="253" x2="253" y2="3"/><line x1="253" x2="253" y1="31" y2="28"/><line x1="221" x2="221" y2="3"/><line x1="221" x2="221" y1="31" y2="28"/><line x1="190" x2="190" y2="3"/><line x1="190" x2="190" y1="31" y2="28"/><line x1="158" x2="158" y2="3"/><line x1="158" x2="158" y1="31" y2="28"/><line x1="127" x2="127" y2="3"/><line x1="127" x2="127" y1="31" y2="28"/><line x1="95" x2="95" y2="3"/><line x1="95" x2="95" y1="31" y2="28"/><line x1="63" x2="63" y2="3"/><line x1="63" x2="63" y1="31" y2="28"/><line x1="32" x2="32" y2="31"/></g><g><g/><g transform="translate(16,-11)"><g transform="translate(759)"><text y="6">0</text></g><g transform="translate(728)"><text y="6">1</text></g><g transform="translate(601)"><text y="6">5</text></g><g transform="translate(570)"><text y="6">6</text></g><g transform="translate(32)"><text y="6">23</text></g><g transform="translate(0)"><text y="6">24</text></g></g><g transform="translate(16,15)"><g transform="translate(759)"><text y="6"><tspan>UXE</tspan></text></g><g transform="translate(664)"><text y="6"><tspan>Reserved</tspan></text></g><g transform="translate(301)"><text y="6"><tspan>PPN</tspan></text></g><g transform="translate(0)"><text y="6"><tspan></tspan></text></g></g><g transform="translate(16,39)"><g><g transform="translate(759)"><text y="6"><tspan>X</tspan></text></g><g transform="translate(759,14)"><text y="6"><tspan>R/W</tspan></text></g></g><g><g transform="translate(664)"><text y="6"><tspan>X</tspan></text></g><g transform="translate(664,14)"><text y="6"><tspan>R/W</tspan></text></g></g><g><g transform="translate(301)"><text y="6"><tspan>X</tspan></text></g><g transform="translate(301,14)"><text y="6"><tspan>R/W</tspan></text></g></g><g><g transform="translate(0)"><text y="6"><tspan>Reset</tspan></text></g><g transform="translate(0,14)"><text y="6"><tspan>R/W</tspan></text></g></g></g></g></g></g></svg>