<svg xmlns="http://www.w3.org/2000/svg" width="800" height="84" viewBox="0 0 800 84" class="WaveDrom"><g transform="translate(0.5,0.5)" text-anchor="middle" font-size="14" font-family="sans-serif" font-weight="normal"><g transform="translate(4,21)"><g stroke="black" stroke-width="1" stroke-linecap="round"><line x2="791"/><line y2="31"/><line x2="791" y1="31" y2="31"/><line x1="791" x2="791" y2="31"/><line x1="755" x2="755" y2="31"/><line x1="719" x2="719" y2="31"/><line x1="683" x2="683" y2="31"/><line x1="647" x2="647" y2="31"/><line x1="611" x2="611" y2="31"/><line x1="575" x2="575" y2="3"/><line x1="575" x2="575" y1="31" y2="28"/><line x1="539" x2="539" y2="3"/><line x1="539" x2="539" y1="31" y2="28"/><line x1="503" x2="503" y2="3"/><line x1="503" x2="503" y1="31" y2="28"/><line x1="467" x2="467" y2="3"/><line x1="467" x2="467" y1="31" y2="28"/><line x1="431" x2="431" y2="3"/><line x1="431" x2="431" y1="31" y2="28"/><line x1="396" x2="396" y2="3"/><line x1="396" x2="396" y1="31" y2="28"/><line x1="360" x2="360" y2="3"/><line x1="360" x2="360" y1="31" y2="28"/><line x1="324" x2="324" y2="3"/><line x1="324" x2="324" y1="31" y2="28"/><line x1="288" x2="288" y2="3"/><line x1="288" x2="288" y1="31" y2="28"/><line x1="252" x2="252" y2="3"/><line x1="252" x2="252" y1="31" y2="28"/><line x1="216" x2="216" y2="31"/><line x1="180" x2="180" y2="3"/><line x1="180" x2="180" y1="31" y2="28"/><line x1="144" x2="144" y2="3"/><line x1="144" x2="144" y1="31" y2="28"/><line x1="108" x2="108" y2="3"/><line x1="108" x2="108" y1="31" y2="28"/><line x1="72" x2="72" y2="3"/><line x1="72" x2="72" y1="31" y2="28"/><line x1="36" x2="36" y2="31"/></g><g><g/><g transform="translate(18,-11)"><g transform="translate(755)"><text y="6">0</text></g><g transform="translate(719)"><text y="6">1</text></g><g transform="translate(683)"><text y="6">2</text></g><g transform="translate(647)"><text y="6">3</text></g><g transform="translate(611)"><text y="6">4</text></g><g transform="translate(575)"><text y="6">5</text></g><g transform="translate(216)"><text y="6">15</text></g><g transform="translate(180)"><text y="6">16</text></g><g transform="translate(36)"><text y="6">20</text></g><g transform="translate(0)"><text y="6">21</text></g></g><g transform="translate(18,15)"><g transform="translate(755)"><text y="6"><tspan>LSUS</tspan></text></g><g transform="translate(719)"><text y="6"><tspan>BS</tspan></text></g><g transform="translate(683)"><text y="6"><tspan>DTLBM</tspan></text></g><g transform="translate(647)"><text y="6"><tspan>ITLBM</tspan></text></g><g transform="translate(611)"><text y="6"><tspan>DDS</tspan></text></g><g transform="translate(396)"><text y="6"><tspan>WPE</tspan></text></g><g transform="translate(108)"><text y="6"><tspan>Reserved</tspan></text></g><g transform="translate(0)"><text y="6"><tspan></tspan></text></g></g><g transform="translate(18,39)"><g><g transform="translate(755)"><text y="6"><tspan>0</tspan></text></g><g transform="translate(755,14)"><text y="6"><tspan>R/W</tspan></text></g></g><g><g transform="translate(719)"><text y="6"><tspan>0</tspan></text></g><g transform="translate(719,14)"><text y="6"><tspan>R/W</tspan></text></g></g><g><g transform="translate(683)"><text y="6"><tspan>0</tspan></text></g><g transform="translate(683,14)"><text y="6"><tspan>R/W</tspan></text></g></g><g><g transform="translate(647)"><text y="6"><tspan>0</tspan></text></g><g transform="translate(647,14)"><text y="6"><tspan>R/W</tspan></text></g></g><g><g transform="translate(611)"><text y="6"><tspan>0</tspan></text></g><g transform="translate(611,14)"><text y="6"><tspan>R/W</tspan></text></g></g><g><g transform="translate(396)"><text y="6"><tspan>0</tspan></text></g><g transform="translate(396,14)"><text y="6"><tspan>R/W</tspan></text></g></g><g><g transform="translate(108)"><text y="6"><tspan>X</tspan></text></g><g transform="translate(108,14)"><text y="6"><tspan>Read Only</tspan></text></g></g><g><g transform="translate(0)"><text y="6"><tspan>Reset</tspan></text></g><g transform="translate(0,14)"><text y="6"><tspan>R/W</tspan></text></g></g></g></g></g></g></svg>