<svg xmlns="http://www.w3.org/2000/svg" width="800" height="84" viewBox="0 0 800 84" class="WaveDrom"><g transform="translate(0.5,0.5)" text-anchor="middle" font-size="14" font-family="sans-serif" font-weight="normal"><g transform="translate(4,21)"><g stroke="black" stroke-width="1" stroke-linecap="round"><line x2="791"/><line y2="31"/><line x2="791" y1="31" y2="31"/><line x1="791" x2="791" y2="31"/><line x1="744" x2="744" y2="31"/><line x1="698" x2="698" y2="3"/><line x1="698" x2="698" y1="31" y2="28"/><line x1="651" x2="651" y2="3"/><line x1="651" x2="651" y1="31" y2="28"/><line x1="605" x2="605" y2="3"/><line x1="605" x2="605" y1="31" y2="28"/><line x1="558" x2="558" y2="3"/><line x1="558" x2="558" y1="31" y2="28"/><line x1="512" x2="512" y2="3"/><line x1="512" x2="512" y1="31" y2="28"/><line x1="465" x2="465" y2="3"/><line x1="465" x2="465" y1="31" y2="28"/><line x1="419" x2="419" y2="3"/><line x1="419" x2="419" y1="31" y2="28"/><line x1="372" x2="372" y2="3"/><line x1="372" x2="372" y1="31" y2="28"/><line x1="326" x2="326" y2="3"/><line x1="326" x2="326" y1="31" y2="28"/><line x1="279" x2="279" y2="3"/><line x1="279" x2="279" y1="31" y2="28"/><line x1="233" x2="233" y2="31"/><line x1="186" x2="186" y2="3"/><line x1="186" x2="186" y1="31" y2="28"/><line x1="140" x2="140" y2="3"/><line x1="140" x2="140" y1="31" y2="28"/><line x1="93" x2="93" y2="3"/><line x1="93" x2="93" y1="31" y2="28"/><line x1="47" x2="47" y2="31"/></g><g><g/><g transform="translate(23,-11)"><g transform="translate(744)"><text y="6">0</text></g><g transform="translate(698)"><text y="6">1</text></g><g transform="translate(233)"><text y="6">11</text></g><g transform="translate(186)"><text y="6">12</text></g><g transform="translate(47)"><text y="6">15</text></g><g transform="translate(0)"><text y="6">16</text></g></g><g transform="translate(23,15)"><g transform="translate(744)"><text y="6"><tspan>SUMRA</tspan></text></g><g transform="translate(465)"><text y="6"><tspan>Reserved</tspan></text></g><g transform="translate(116)"><text y="6"><tspan>CID</tspan></text></g><g transform="translate(0)"><text y="6"><tspan></tspan></text></g></g><g transform="translate(23,39)"><g><g transform="translate(744)"><text y="6"><tspan>0</tspan></text></g><g transform="translate(744,14)"><text y="6"><tspan>R/W</tspan></text></g></g><g><g transform="translate(465)"><text y="6"><tspan>0</tspan></text></g><g transform="translate(465,14)"><text y="6"><tspan>Read Only</tspan></text></g></g><g><g transform="translate(116)"><text y="6"><tspan>0</tspan></text></g><g transform="translate(116,14)"><text y="6"><tspan>R/W</tspan></text></g></g><g><g transform="translate(0)"><text y="6"><tspan>Reset</tspan></text></g><g transform="translate(0,14)"><text y="6"><tspan>R/W</tspan></text></g></g></g></g></g></g></svg>