<svg xmlns="http://www.w3.org/2000/svg" width="800" height="84" viewBox="0 0 800 84" class="WaveDrom"><g transform="translate(0.5,0.5)" text-anchor="middle" font-size="14" font-family="sans-serif" font-weight="normal"><g transform="translate(4,21)"><g stroke="black" stroke-width="1" stroke-linecap="round"><line x2="791"/><line y2="31"/><line x2="791" y1="31" y2="31"/><line x1="791" x2="791" y2="31"/><line x1="762" x2="762" y2="31"/><line x1="732" x2="732" y2="31"/><line x1="703" x2="703" y2="31"/><line x1="674" x2="674" y2="31"/><line x1="645" x2="645" y2="3"/><line x1="645" x2="645" y1="31" y2="28"/><line x1="615" x2="615" y2="3"/><line x1="615" x2="615" y1="31" y2="28"/><line x1="586" x2="586" y2="3"/><line x1="586" x2="586" y1="31" y2="28"/><line x1="557" x2="557" y2="3"/><line x1="557" x2="557" y1="31" y2="28"/><line x1="527" x2="527" y2="3"/><line x1="527" x2="527" y1="31" y2="28"/><line x1="498" x2="498" y2="3"/><line x1="498" x2="498" y1="31" y2="28"/><line x1="469" x2="469" y2="3"/><line x1="469" x2="469" y1="31" y2="28"/><line x1="439" x2="439" y2="3"/><line x1="439" x2="439" y1="31" y2="28"/><line x1="410" x2="410" y2="3"/><line x1="410" x2="410" y1="31" y2="28"/><line x1="381" x2="381" y2="3"/><line x1="381" x2="381" y1="31" y2="28"/><line x1="352" x2="352" y2="3"/><line x1="352" x2="352" y1="31" y2="28"/><line x1="322" x2="322" y2="3"/><line x1="322" x2="322" y1="31" y2="28"/><line x1="293" x2="293" y2="31"/><line x1="264" x2="264" y2="3"/><line x1="264" x2="264" y1="31" y2="28"/><line x1="234" x2="234" y2="3"/><line x1="234" x2="234" y1="31" y2="28"/><line x1="205" x2="205" y2="3"/><line x1="205" x2="205" y1="31" y2="28"/><line x1="176" x2="176" y2="3"/><line x1="176" x2="176" y1="31" y2="28"/><line x1="146" x2="146" y2="3"/><line x1="146" x2="146" y1="31" y2="28"/><line x1="117" x2="117" y2="3"/><line x1="117" x2="117" y1="31" y2="28"/><line x1="88" x2="88" y2="3"/><line x1="88" x2="88" y1="31" y2="28"/><line x1="59" x2="59" y2="3"/><line x1="59" x2="59" y1="31" y2="28"/><line x1="29" x2="29" y2="31"/></g><g><g/><g transform="translate(15,-11)"><g transform="translate(762)"><text y="6">0</text></g><g transform="translate(732)"><text y="6">1</text></g><g transform="translate(703)"><text y="6">2</text></g><g transform="translate(674)"><text y="6">3</text></g><g transform="translate(645)"><text y="6">4</text></g><g transform="translate(293)"><text y="6">16</text></g><g transform="translate(264)"><text y="6">17</text></g><g transform="translate(29)"><text y="6">25</text></g><g transform="translate(0)"><text y="6">26</text></g></g><g transform="translate(15,15)"><g transform="translate(762)"><text y="6"><tspan>PCUR</tspan></text></g><g transform="translate(732)"><text y="6"><tspan>PICR</tspan></text></g><g transform="translate(703)"><text y="6"><tspan>PMP</tspan></text></g><g transform="translate(674)"><text y="6"><tspan>TTP</tspan></text></g><g transform="translate(469)"><text y="6"><tspan>Reversed</tspan></text></g><g transform="translate(146)"><text y="6"><tspan>CUP</tspan></text></g><g transform="translate(0)"><text y="6"><tspan></tspan></text></g></g><g transform="translate(15,39)"><g><g transform="translate(762)"><text y="6"><tspan>-</tspan></text></g><g transform="translate(762,14)"><text y="6"><tspan>R</tspan></text></g></g><g><g transform="translate(732)"><text y="6"><tspan>-</tspan></text></g><g transform="translate(732,14)"><text y="6"><tspan>R</tspan></text></g></g><g><g transform="translate(703)"><text y="6"><tspan>-</tspan></text></g><g transform="translate(703,14)"><text y="6"><tspan>R</tspan></text></g></g><g><g transform="translate(674)"><text y="6"><tspan>-</tspan></text></g><g transform="translate(674,14)"><text y="6"><tspan>R</tspan></text></g></g><g><g transform="translate(469)"><text y="6"><tspan>X</tspan></text></g><g transform="translate(469,14)"><text y="6"><tspan>R</tspan></text></g></g><g><g transform="translate(146)"><text y="6"><tspan>-</tspan></text></g><g transform="translate(146,14)"><text y="6"><tspan>R</tspan></text></g></g><g><g transform="translate(0)"><text y="6"><tspan>Reset</tspan></text></g><g transform="translate(0,14)"><text y="6"><tspan>R/W</tspan></text></g></g></g></g></g></g></svg>