<svg xmlns="http://www.w3.org/2000/svg" width="800" height="84" viewBox="0 0 800 84" class="WaveDrom"><g transform="translate(0.5,0.5)" text-anchor="middle" font-size="14" font-family="sans-serif" font-weight="normal"><g transform="translate(4,21)"><g stroke="black" stroke-width="1" stroke-linecap="round"><line x2="791"/><line y2="31"/><line x2="791" y1="31" y2="31"/><line x1="791" x2="791" y2="31"/><line x1="767" x2="767" y2="3"/><line x1="767" x2="767" y1="31" y2="28"/><line x1="743" x2="743" y2="3"/><line x1="743" x2="743" y1="31" y2="28"/><line x1="719" x2="719" y2="3"/><line x1="719" x2="719" y1="31" y2="28"/><line x1="695" x2="695" y2="3"/><line x1="695" x2="695" y1="31" y2="28"/><line x1="671" x2="671" y2="3"/><line x1="671" x2="671" y1="31" y2="28"/><line x1="647" x2="647" y2="31"/><line x1="623" x2="623" y2="31"/><line x1="599" x2="599" y2="3"/><line x1="599" x2="599" y1="31" y2="28"/><line x1="575" x2="575" y2="3"/><line x1="575" x2="575" y1="31" y2="28"/><line x1="551" x2="551" y2="3"/><line x1="551" x2="551" y1="31" y2="28"/><line x1="527" x2="527" y2="3"/><line x1="527" x2="527" y1="31" y2="28"/><line x1="503" x2="503" y2="3"/><line x1="503" x2="503" y1="31" y2="28"/><line x1="479" x2="479" y2="3"/><line x1="479" x2="479" y1="31" y2="28"/><line x1="455" x2="455" y2="3"/><line x1="455" x2="455" y1="31" y2="28"/><line x1="431" x2="431" y2="3"/><line x1="431" x2="431" y1="31" y2="28"/><line x1="407" x2="407" y2="31"/><line x1="384" x2="384" y2="3"/><line x1="384" x2="384" y1="31" y2="28"/><line x1="360" x2="360" y2="3"/><line x1="360" x2="360" y1="31" y2="28"/><line x1="336" x2="336" y2="3"/><line x1="336" x2="336" y1="31" y2="28"/><line x1="312" x2="312" y2="3"/><line x1="312" x2="312" y1="31" y2="28"/><line x1="288" x2="288" y2="3"/><line x1="288" x2="288" y1="31" y2="28"/><line x1="264" x2="264" y2="3"/><line x1="264" x2="264" y1="31" y2="28"/><line x1="240" x2="240" y2="3"/><line x1="240" x2="240" y1="31" y2="28"/><line x1="216" x2="216" y2="31"/><line x1="192" x2="192" y2="3"/><line x1="192" x2="192" y1="31" y2="28"/><line x1="168" x2="168" y2="3"/><line x1="168" x2="168" y1="31" y2="28"/><line x1="144" x2="144" y2="3"/><line x1="144" x2="144" y1="31" y2="28"/><line x1="120" x2="120" y2="3"/><line x1="120" x2="120" y1="31" y2="28"/><line x1="96" x2="96" y2="3"/><line x1="96" x2="96" y1="31" y2="28"/><line x1="72" x2="72" y2="3"/><line x1="72" x2="72" y1="31" y2="28"/><line x1="48" x2="48" y2="3"/><line x1="48" x2="48" y1="31" y2="28"/><line x1="24" x2="24" y2="31"/></g><g><g/><g transform="translate(12,-11)"><g transform="translate(767)"><text y="6">0</text></g><g transform="translate(647)"><text y="6">5</text></g><g transform="translate(623)"><text y="6">6</text></g><g transform="translate(599)"><text y="6">7</text></g><g transform="translate(407)"><text y="6">15</text></g><g transform="translate(384)"><text y="6">16</text></g><g transform="translate(216)"><text y="6">23</text></g><g transform="translate(192)"><text y="6">24</text></g><g transform="translate(24)"><text y="6">31</text></g><g transform="translate(0)"><text y="6">32</text></g></g><g transform="translate(12,15)"><g transform="translate(707)"><text y="6"><tspan>REV</tspan></text></g><g transform="translate(623)"><text y="6"><tspan>UVPR</tspan></text></g><g transform="translate(503)"><text y="6"><tspan>Reversed</tspan></text></g><g transform="translate(300)"><text y="6"><tspan>CFG</tspan></text></g><g transform="translate(108)"><text y="6"><tspan>VE</tspan></text></g><g transform="translate(0)"><text y="6"><tspan></tspan></text></g></g><g transform="translate(12,39)"><g><g transform="translate(707)"><text y="6"><tspan>-</tspan></text></g><g transform="translate(707,14)"><text y="6"><tspan>R</tspan></text></g></g><g><g transform="translate(623)"><text y="6"><tspan>-</tspan></text></g><g transform="translate(623,14)"><text y="6"><tspan>R</tspan></text></g></g><g><g transform="translate(503)"><text y="6"><tspan>X</tspan></text></g><g transform="translate(503,14)"><text y="6"><tspan>R</tspan></text></g></g><g><g transform="translate(300)"><text y="6"><tspan>-</tspan></text></g><g transform="translate(300,14)"><text y="6"><tspan>R</tspan></text></g></g><g><g transform="translate(108)"><text y="6"><tspan>-</tspan></text></g><g transform="translate(108,14)"><text y="6"><tspan>R</tspan></text></g></g><g><g transform="translate(0)"><text y="6"><tspan>Reset</tspan></text></g><g transform="translate(0,14)"><text y="6"><tspan>R/W</tspan></text></g></g></g></g></g></g></svg>