<svg xmlns="http://www.w3.org/2000/svg" width="800" height="84" viewBox="0 0 800 84" class="WaveDrom"><g transform="translate(0.5,0.5)" text-anchor="middle" font-size="14" font-family="sans-serif" font-weight="normal"><g transform="translate(4,21)"><g stroke="black" stroke-width="1" stroke-linecap="round"><line x2="791"/><line y2="31"/><line x2="791" y1="31" y2="31"/><line x1="791" x2="791" y2="31"/><line x1="757" x2="757" y2="3"/><line x1="757" x2="757" y1="31" y2="28"/><line x1="722" x2="722" y2="3"/><line x1="722" x2="722" y1="31" y2="28"/><line x1="688" x2="688" y2="3"/><line x1="688" x2="688" y1="31" y2="28"/><line x1="653" x2="653" y2="3"/><line x1="653" x2="653" y1="31" y2="28"/><line x1="619" x2="619" y2="3"/><line x1="619" x2="619" y1="31" y2="28"/><line x1="585" x2="585" y2="3"/><line x1="585" x2="585" y1="31" y2="28"/><line x1="550" x2="550" y2="3"/><line x1="550" x2="550" y1="31" y2="28"/><line x1="516" x2="516" y2="3"/><line x1="516" x2="516" y1="31" y2="28"/><line x1="481" x2="481" y2="3"/><line x1="481" x2="481" y1="31" y2="28"/><line x1="447" x2="447" y2="3"/><line x1="447" x2="447" y1="31" y2="28"/><line x1="413" x2="413" y2="3"/><line x1="413" x2="413" y1="31" y2="28"/><line x1="378" x2="378" y2="3"/><line x1="378" x2="378" y1="31" y2="28"/><line x1="344" x2="344" y2="3"/><line x1="344" x2="344" y1="31" y2="28"/><line x1="310" x2="310" y2="3"/><line x1="310" x2="310" y1="31" y2="28"/><line x1="275" x2="275" y2="3"/><line x1="275" x2="275" y1="31" y2="28"/><line x1="241" x2="241" y2="3"/><line x1="241" x2="241" y1="31" y2="28"/><line x1="206" x2="206" y2="3"/><line x1="206" x2="206" y1="31" y2="28"/><line x1="172" x2="172" y2="3"/><line x1="172" x2="172" y1="31" y2="28"/><line x1="138" x2="138" y2="3"/><line x1="138" x2="138" y1="31" y2="28"/><line x1="103" x2="103" y2="3"/><line x1="103" x2="103" y1="31" y2="28"/><line x1="69" x2="69" y2="3"/><line x1="69" x2="69" y1="31" y2="28"/><line x1="34" x2="34" y2="31"/></g><g><g/><g transform="translate(17,-11)"><g transform="translate(757)"><text y="6">0</text></g><g transform="translate(34)"><text y="6">21</text></g><g transform="translate(0)"><text y="6">22</text></g></g><g transform="translate(17,15)"><g transform="translate(396)"><text y="6"><tspan>VPN</tspan></text></g><g transform="translate(0)"><text y="6"><tspan></tspan></text></g></g><g transform="translate(17,39)"><g><g transform="translate(396)"><text y="6"><tspan>X</tspan></text></g><g transform="translate(396,14)"><text y="6"><tspan>R/W</tspan></text></g></g><g><g transform="translate(0)"><text y="6"><tspan>Reset</tspan></text></g><g transform="translate(0,14)"><text y="6"><tspan>R/W</tspan></text></g></g></g></g></g></g></svg>