<svg xmlns="http://www.w3.org/2000/svg" width="800" height="84" viewBox="0 0 800 84" class="WaveDrom"><g transform="translate(0.5,0.5)" text-anchor="middle" font-size="14" font-family="sans-serif" font-weight="normal"><g transform="translate(4,21)"><g stroke="black" stroke-width="1" stroke-linecap="round"><line x2="791"/><line y2="31"/><line x2="791" y1="31" y2="31"/><line x1="791" x2="791" y2="31"/><line x1="749" x2="749" y2="3"/><line x1="749" x2="749" y1="31" y2="28"/><line x1="708" x2="708" y2="3"/><line x1="708" x2="708" y1="31" y2="28"/><line x1="666" x2="666" y2="3"/><line x1="666" x2="666" y1="31" y2="28"/><line x1="624" x2="624" y2="3"/><line x1="624" x2="624" y1="31" y2="28"/><line x1="583" x2="583" y2="3"/><line x1="583" x2="583" y1="31" y2="28"/><line x1="541" x2="541" y2="3"/><line x1="541" x2="541" y1="31" y2="28"/><line x1="500" x2="500" y2="3"/><line x1="500" x2="500" y1="31" y2="28"/><line x1="458" x2="458" y2="3"/><line x1="458" x2="458" y1="31" y2="28"/><line x1="416" x2="416" y2="3"/><line x1="416" x2="416" y1="31" y2="28"/><line x1="375" x2="375" y2="3"/><line x1="375" x2="375" y1="31" y2="28"/><line x1="333" x2="333" y2="3"/><line x1="333" x2="333" y1="31" y2="28"/><line x1="291" x2="291" y2="3"/><line x1="291" x2="291" y1="31" y2="28"/><line x1="250" x2="250" y2="3"/><line x1="250" x2="250" y1="31" y2="28"/><line x1="208" x2="208" y2="3"/><line x1="208" x2="208" y1="31" y2="28"/><line x1="167" x2="167" y2="3"/><line x1="167" x2="167" y1="31" y2="28"/><line x1="125" x2="125" y2="3"/><line x1="125" x2="125" y1="31" y2="28"/><line x1="83" x2="83" y2="3"/><line x1="83" x2="83" y1="31" y2="28"/><line x1="42" x2="42" y2="31"/></g><g><g/><g transform="translate(21,-11)"><g transform="translate(749)"><text y="6">0</text></g><g transform="translate(42)"><text y="6">17</text></g><g transform="translate(0)"><text y="6">18</text></g></g><g transform="translate(21,15)"><g transform="translate(395)"><text y="6"><tspan>VPN</tspan></text></g><g transform="translate(0)"><text y="6"><tspan></tspan></text></g></g><g transform="translate(21,39)"><g><g transform="translate(395)"><text y="6"><tspan>X</tspan></text></g><g transform="translate(395,14)"><text y="6"><tspan>R/W</tspan></text></g></g><g><g transform="translate(0)"><text y="6"><tspan>Reset</tspan></text></g><g transform="translate(0,14)"><text y="6"><tspan>R/W</tspan></text></g></g></g></g></g></g></svg>